<svg width="32" height="32" viewBox="0 0 32 32" fill="none" xmlns="http://www.w3.org/2000/svg">
<path d="M16 2.72003C8.66667 2.72003 2.66667 8.7067 2.66667 16.08C2.66667 22.7467 7.54667 28.28 13.92 29.28V19.9467H10.5333V16.08H13.92V13.1334C13.92 9.7867 15.9067 7.9467 18.96 7.9467C20.4133 7.9467 21.9333 8.20003 21.9333 8.20003V11.4934H20.2533C18.6 11.4934 18.08 12.52 18.08 13.5734V16.08H21.7867L21.1867 19.9467H18.08V29.28C21.2219 28.7838 24.0829 27.1807 26.1466 24.7601C28.2102 22.3395 29.3405 19.2609 29.3333 16.08C29.3333 8.7067 23.3333 2.72003 16 2.72003Z" fill="white"/>
</svg>
