<svg width="32" height="32" viewBox="0 0 32 32" fill="none" xmlns="http://www.w3.org/2000/svg">
<path d="M20.0933 2.66669H11.9067C4.44 2.66669 2.66666 4.44002 2.66666 11.9067V20.0934C2.66666 27.56 4.44 29.3334 11.9067 29.3334H20.0933C27.56 29.3334 29.3333 27.56 29.3333 20.0934V11.9067C29.3333 4.44002 27.56 2.66669 20.0933 2.66669ZM24.2 21.6934H22.2533C21.52 21.6934 21.2933 21.0934 20 19.7734C18.8267 18.6667 18.32 18.5067 18.04 18.5067C17.6533 18.5067 17.5333 18.6134 17.5333 19.1734V20.92C17.5333 21.3867 17.3867 21.68 16.1467 21.68C14.0933 21.68 11.8133 20.4267 10.2133 18.12C7.8 14.7334 7.14666 12.1734 7.14666 11.6667C7.14666 11.3867 7.24 11.12 7.8 11.12H9.76C10.2533 11.12 10.44 11.3334 10.6267 11.8667C11.5867 14.6667 13.1867 17.0667 13.84 17.0667C14.0933 17.0667 14.2 16.9467 14.2 16.3334V13.4667C14.1333 12.16 13.4267 12.04 13.4267 11.5734C13.4267 11.3334 13.6133 11.12 13.92 11.12H16.9733C17.3867 11.12 17.5333 11.3334 17.5333 11.84V15.6934C17.5333 16.1067 17.7067 16.2534 17.84 16.2534C18.08 16.2534 18.2933 16.1067 18.7333 15.6534C20.1333 14.0934 21.1333 11.68 21.1333 11.68C21.2667 11.4 21.48 11.1334 22 11.1334H23.9067C24.4933 11.1334 24.6267 11.44 24.4933 11.8534C24.2533 12.9867 21.88 16.3334 21.9067 16.3334C21.6933 16.6667 21.6133 16.8134 21.9067 17.2C22.1067 17.48 22.7867 18.0667 23.24 18.5867C24.0667 19.5334 24.7067 20.32 24.88 20.8667C25.0267 21.4134 24.76 21.6934 24.2 21.6934Z" fill="currentColor"/>
</svg>
